<svg xmlns="http://www.w3.org/2000/svg" width="235.329" height="90.165" viewBox="0 0 1648.329 361.165" style="
    background-color: black;">
  <g id="codesorbit_logo" transform="translate(360 -213)">
    <g id="white" transform="translate(210 213)">
      <path id="Shape_1161_copy" data-name="Shape 1161 copy" d="M1713.82,491.544c-1.191-40.423-16.677-73.56-45.994-87.986a89.145,89.145,0,0,0-42.24-9.143,38.806,38.806,0,0,0-6.869-28.326,90.632,90.632,0,0,1,43.5,10.341C1699.161,395.981,1716.311,439.748,1713.82,491.544Zm-138.884-80.771a24.7,24.7,0,0,1-10.22-33.593,25.147,25.147,0,0,1,33.852-10.271A24.7,24.7,0,0,1,1608.79,400.5,25.148,25.148,0,0,1,1574.937,410.773Zm-88.462,91.534c-44.748,83.058-34.591,173.51,19.306,202.031,32.876,17.4,75.444,7.694,113.809-21.341-45.4,39.541-98.034,53.846-139.678,31.81-62.591-33.121-69.782-135.719-19.441-229.159,23.014-42.717,54.074-76.083,86.987-96.6A38.823,38.823,0,0,0,1560,417.472C1532.08,436.261,1506.24,465.619,1486.475,502.307Z" transform="translate(-1215.64 -363.997)" fill="#fff"/>
      <path id="Shape_1162_copy" data-name="Shape 1162 copy" d="M1660.2,523.271a105.809,105.809,0,0,1-6.928,7.171L1500.056,637.167a17.627,17.627,0,0,1-20.37-28.775l136.32-94.959-122.774-86.861a165.32,165.32,0,0,1,14.816-15.685A100.286,100.286,0,0,1,1519.6,402l136.449,96.537A17.937,17.937,0,0,1,1660.2,523.271Z" transform="translate(-1171.842 -327.014)" fill="#fedd00"/>
      <path id="Shape_1163_copy" data-name="Shape 1163 copy" d="M1507.942,636.311a17.622,17.622,0,0,1-24.557,4.182L1330.158,533.96a105.44,105.44,0,0,1-6.929-7.157,17.882,17.882,0,0,1,4.146-24.694l151.808-107.2a17.288,17.288,0,0,1,24.33,4.207,17.884,17.884,0,0,1-4.146,24.695l-131.944,93.17,136.334,94.788A17.6,17.6,0,0,1,1507.942,636.311Z" transform="translate(-1320.013 -337.087)" fill="#fedd00"/>
    </g>    
  </g>
</svg>
